PathFileType	4	(X/Y/Z)	D:\MotionData\Pi-Spi Study\20230118_AMCsubject1\Trimmed_left_abd_001_rotated.trc
DataRate	CameraRate	NumFrames	NumMarkers	Units	OrigDataRate	OrigDataStartFrame	OrigNumFrames
200.00	200.00	       5	35	mm	200.00	76	       200
Frame#	Time	C7			Sternum			r_AMC1			r_AMC2			r_AMC3			l_AMC1			l_AMC2			l_AMC3			PX			T8			r_humerous			r_elbow_medial			r_elbow_lateral			r_forearm			r_wrist_radius			r_wrist_ulna			r_MCP_1			r_MCP_3			l_humerous			l_elbow_medial			l_elbow_lateral			l_forearm			l_wrist_radius			l_wrist_ulna			l_MCP_1			l_MCP_3			r_ASIS			r_PSIS			l_ASIS			l_PSIS			r_IC			l_IC			TS			AI			AA			
		X1	Y1	Z1	X2	Y2	Z2	X3	Y3	Z3	X4	Y4	Z4	X5	Y5	Z5	X6	Y6	Z6	X7	Y7	Z7	X8	Y8	Z8	X9	Y9	Z9	X10	Y10	Z10	X11	Y11	Z11	X12	Y12	Z12	X13	Y13	Z13	X14	Y14	Z14	X15	Y15	Z15	X16	Y16	Z16	X17	Y17	Z17	X18	Y18	Z18	X19	Y19	Z19	X20	Y20	Z20	X21	Y21	Z21	X22	Y22	Z22	X23	Y23	Z23	X24	Y24	Z24	X25	Y25	Z25	X26	Y26	Z26	X27	Y27	Z27	X28	Y28	Z28	X29	Y29	Z29	X30	Y30	Z30	X31	Y31	Z31	X32	Y32	Z32	X33	Y33	Z33	X34	Y34	Z34	X35	Y35	Z35	

76	0.375	208.0356	1374.4668	-206.7776	336.2826	1302.6255	-199.7458	209.198	1315.5823	-41.7885	247.0717	1311.7283	-9.595	267.9397	1346.3551	-29.7504	228.377	1324.3719	-372.8404	267.8331	1316.0391	-404.3748	291.6121	1351.439	-374.6978	390.8492	1112.4969	-195.9494	157.9629	1191.2285	-217.228	314.4218	1124.984	-1.8431	250.2614	986.3459	-32.9164	256.7196	995.3822	35.469	312.3489	841.3606	61.2622	364.4718	779.7324	45.8218	315.494	772.0245	60.953	387.6447	697.5453	60.0495	338.3913	693.1537	71.352	350.667	1122.7623	-396.1252	289.9498	993.5674	-368.4788	294.2582	989.3041	-420.8008	329.5047	839.9971	-453.2729	370.5702	766.7225	-448.2387	325.6266	763.0159	-447.716	378.6331	687.3066	-458.6664	330.2234	683.8353	-453.0669	376.2891	906.6959	-66.8562	186.9294	923.9175	-152.8278	380.268	893.2549	-329.0088	189.1193	918.5825	-256.2067	286.106	966.147	-41.445	288.8155	938.815	-366.9193	133.6431	1309.0607	-322.9109	119.4812	1209.2097	-314.3995	210.1301	1293.473	-436.9552
77	0.38	208.0572	1374.4845	-206.781	336.2984	1302.6034	-199.7375	209.0599	1315.2615	-41.7504	247.0176	1311.7046	-9.5253	267.9767	1346.2875	-29.7246	228.3613	1324.337	-372.8546	267.8466	1316.0355	-404.3484	291.5454	1351.5868	-374.934	390.8988	1112.4915	-195.9608	157.9553	1191.244	-217.2152	314.4962	1124.959	-1.8569	250.2534	986.3334	-32.8894	256.7091	995.3687	35.4729	312.307	841.3716	61.2783	364.4546	779.725	45.7738	315.4993	772.0255	60.9541	387.6042	697.63	60.1338	338.4359	693.1121	71.3573	350.6769	1122.7436	-396.0856	289.9611	993.5741	-368.4511	294.2626	989.3118	-420.7917	329.5023	839.9939	-453.2618	370.5783	766.727	-448.2427	325.6375	763.0171	-447.7233	378.5274	687.4583	-458.635	330.0738	684.0651	-452.9184	376.2527	906.6873	-66.8348	186.951	923.8926	-152.8442	380.2846	893.2812	-329.0109	189.2066	918.5326	-256.2771	286.0973	966.1513	-41.4346	288.8198	938.7863	-366.9115	133.6628	1309.0535	-322.8917	119.4747	1209.2036	-314.3881	210.1444	1293.4755	-436.9474
78	0.385	208.0406	1374.4667	-206.7439	336.3073	1302.6291	-199.7123	208.9699	1315.1868	-41.6135	247.0322	1311.7078	-9.5181	267.9613	1346.2385	-29.6804	228.362	1324.3427	-372.8349	267.8566	1316.043	-404.342	291.6169	1351.5344	-375.0281	390.9742	1112.483	-195.9807	157.9691	1191.2535	-217.2181	314.5044	1124.9525	-1.8339	250.2628	986.3344	-32.8875	256.7416	995.3999	35.4992	312.3569	841.3506	61.2756	364.502	779.731	45.7716	315.503	772.003	60.9935	387.5855	697.6235	60.0837	338.4938	693.065	71.3387	350.6748	1122.7588	-396.086	289.9613	993.5774	-368.4502	294.2689	989.3012	-420.7874	329.509	840.0057	-453.242	370.5482	766.681	-448.2124	325.6121	763.016	-447.7136	378.584	687.3779	-458.6032	330.0673	684.0638	-452.9091	376.312	906.6729	-66.8531	186.932	923.9229	-152.8086	380.2627	893.2272	-329.0079	189.2023	918.5321	-256.2578	286.186	966.0571	-41.4206	288.8328	938.7936	-366.8805	133.6434	1309.0623	-322.8913	119.5048	1209.2018	-314.3684	210.1625	1293.4492	-436.9485
79	0.39	208.0519	1374.4582	-206.7285	336.3175	1302.6193	-199.6748	209.0702	1315.2469	-41.7287	247.0189	1311.7365	-9.5017	267.9961	1346.2965	-29.7041	228.5808	1324.3783	-372.7397	267.6276	1316.0353	-404.3978	291.6128	1351.5469	-375.0201	390.9703	1112.4708	-195.9189	157.9603	1191.2353	-217.1788	314.5258	1124.9347	-1.8445	250.2535	986.3456	-32.8688	256.7241	995.3795	35.5063	312.3163	841.4003	61.2781	364.544	779.6865	45.7657	315.4365	772.1026	60.9946	387.6325	697.5785	60.1038	338.5319	693.076	71.3609	350.6476	1122.7929	-396.091	289.9711	993.5699	-368.4489	294.27	989.2845	-420.7657	329.4963	840.0073	-453.2373	370.5498	766.7418	-448.2552	325.6112	763.0311	-447.7079	378.6767	687.2176	-458.5839	330.0645	684.0527	-452.9106	376.2615	906.6871	-66.8142	186.939	923.9042	-152.8257	380.2915	893.2614	-329.0116	189.2075	918.5296	-256.2326	286.1464	966.0737	-41.4126	288.8135	938.7911	-366.875	133.6517	1309.0414	-322.8681	119.4818	1209.1951	-314.3829	210.0977	1293.4832	-437.0867
80	0.395	208.0469	1374.4607	-206.707	336.3388	1302.6408	-199.7167	209.0977	1315.2659	-41.7153	247.0657	1311.6837	-9.5169	267.9803	1346.2982	-29.6947	228.6071	1324.3101	-372.7343	267.639	1316.0212	-404.3832	291.6159	1351.4114	-374.6592	390.8389	1112.4711	-195.9087	157.9865	1191.2239	-217.1872	314.5265	1124.9501	-1.8409	250.2908	986.3485	-32.8701	256.7611	995.3967	35.4936	312.4036	841.3355	61.2243	364.5174	779.7024	45.7844	315.5427	772.0137	60.9667	387.5686	697.6418	60.0747	338.5118	693.0438	71.3299	350.6768	1122.756	-396.0844	289.9792	993.5862	-368.4159	294.2867	989.2783	-420.7491	329.4971	840.0033	-453.2255	370.5593	766.7216	-448.2384	325.6074	763.017	-447.6936	378.6055	687.3128	-458.6308	330.2053	683.7976	-453.0541	376.3019	906.6945	-66.8137	186.9347	923.9086	-152.8136	380.2904	893.2672	-328.9816	189.2185	918.5122	-256.2407	286.1941	966.0632	-41.3893	288.8176	938.7872	-366.8631	133.6604	1309.0366	-322.8784	119.4747	1209.191	-314.3332	210.1542	1293.3878	-436.9317
